<mxfile host="app.diagrams.net" agent="Mozilla/5.0 (Windows NT 10.0; Win64; x64) AppleWebKit/537.36 (KHTML, like Gecko) Chrome/128.0.0.0 Safari/537.36 OPR/114.0.0.0 (Edition std-1)" version="25.0.3">
  <diagram name="Page-1" id="encHZPhD1lelOrhWnCq7">
    <mxGraphModel grid="1" page="1" gridSize="10" guides="1" tooltips="1" connect="1" arrows="1" fold="1" pageScale="1" pageWidth="1169" pageHeight="827" math="0" shadow="0">
      <root>
        <mxCell id="0" />
        <mxCell id="1" parent="0" />
        <mxCell id="0SgJ_A86Uggard_y68Ap-2" value="Library Management System" style="swimlane;startSize=0;verticalAlign=top;" vertex="1" parent="1">
          <mxGeometry x="190" y="70" width="770" height="610" as="geometry" />
        </mxCell>
        <mxCell id="ImMkaFwbqjthbO7qOV-b-25" style="edgeStyle=orthogonalEdgeStyle;rounded=0;orthogonalLoop=1;jettySize=auto;html=1;exitX=0;exitY=1;exitDx=0;exitDy=0;entryX=1;entryY=0.5;entryDx=0;entryDy=0;" edge="1" parent="0SgJ_A86Uggard_y68Ap-2" source="89Jm8Zo3PA9v6r5dzi0W-6" target="89Jm8Zo3PA9v6r5dzi0W-16">
          <mxGeometry relative="1" as="geometry">
            <Array as="points">
              <mxPoint x="553" y="137" />
            </Array>
          </mxGeometry>
        </mxCell>
        <mxCell id="89Jm8Zo3PA9v6r5dzi0W-6" value="Create New customer" style="ellipse;whiteSpace=wrap;html=1;" vertex="1" parent="0SgJ_A86Uggard_y68Ap-2">
          <mxGeometry x="540" y="42" width="90" height="58" as="geometry" />
        </mxCell>
        <mxCell id="89Jm8Zo3PA9v6r5dzi0W-8" value="Add to database&amp;nbsp;" style="ellipse;whiteSpace=wrap;html=1;" vertex="1" parent="0SgJ_A86Uggard_y68Ap-2">
          <mxGeometry x="355" y="51" width="80" height="40" as="geometry" />
        </mxCell>
        <mxCell id="ImMkaFwbqjthbO7qOV-b-6" style="edgeStyle=orthogonalEdgeStyle;rounded=0;orthogonalLoop=1;jettySize=auto;html=1;exitX=0;exitY=0.5;exitDx=0;exitDy=0;" edge="1" parent="0SgJ_A86Uggard_y68Ap-2" source="89Jm8Zo3PA9v6r5dzi0W-10" target="89Jm8Zo3PA9v6r5dzi0W-14">
          <mxGeometry relative="1" as="geometry" />
        </mxCell>
        <mxCell id="89Jm8Zo3PA9v6r5dzi0W-10" value="Login" style="ellipse;whiteSpace=wrap;html=1;" vertex="1" parent="0SgJ_A86Uggard_y68Ap-2">
          <mxGeometry x="279.5" y="323" width="80" height="41" as="geometry" />
        </mxCell>
        <mxCell id="89Jm8Zo3PA9v6r5dzi0W-15" style="edgeStyle=orthogonalEdgeStyle;rounded=0;orthogonalLoop=1;jettySize=auto;html=1;exitX=0;exitY=0.5;exitDx=0;exitDy=0;" edge="1" parent="0SgJ_A86Uggard_y68Ap-2" source="89Jm8Zo3PA9v6r5dzi0W-12" target="89Jm8Zo3PA9v6r5dzi0W-14">
          <mxGeometry relative="1" as="geometry" />
        </mxCell>
        <mxCell id="89Jm8Zo3PA9v6r5dzi0W-12" value="Access users information" style="ellipse;whiteSpace=wrap;html=1;" vertex="1" parent="0SgJ_A86Uggard_y68Ap-2">
          <mxGeometry x="189.5" y="380" width="90" height="40" as="geometry" />
        </mxCell>
        <mxCell id="89Jm8Zo3PA9v6r5dzi0W-14" value="Validate user login information" style="ellipse;whiteSpace=wrap;html=1;" vertex="1" parent="0SgJ_A86Uggard_y68Ap-2">
          <mxGeometry x="140" y="299.5" width="112" height="62" as="geometry" />
        </mxCell>
        <mxCell id="89Jm8Zo3PA9v6r5dzi0W-16" value="Connect to stock database" style="ellipse;whiteSpace=wrap;html=1;" vertex="1" parent="0SgJ_A86Uggard_y68Ap-2">
          <mxGeometry x="349.5" y="108" width="89" height="59" as="geometry" />
        </mxCell>
        <mxCell id="ImMkaFwbqjthbO7qOV-b-27" style="edgeStyle=orthogonalEdgeStyle;rounded=0;orthogonalLoop=1;jettySize=auto;html=1;exitX=1;exitY=1;exitDx=0;exitDy=0;entryX=0;entryY=0.5;entryDx=0;entryDy=0;" edge="1" parent="0SgJ_A86Uggard_y68Ap-2" source="89Jm8Zo3PA9v6r5dzi0W-17" target="89Jm8Zo3PA9v6r5dzi0W-16">
          <mxGeometry relative="1" as="geometry">
            <Array as="points">
              <mxPoint x="263" y="138" />
              <mxPoint x="315" y="138" />
            </Array>
          </mxGeometry>
        </mxCell>
        <mxCell id="ImMkaFwbqjthbO7qOV-b-28" style="edgeStyle=orthogonalEdgeStyle;rounded=0;orthogonalLoop=1;jettySize=auto;html=1;entryX=0;entryY=0.5;entryDx=0;entryDy=0;" edge="1" parent="0SgJ_A86Uggard_y68Ap-2" source="89Jm8Zo3PA9v6r5dzi0W-17" target="89Jm8Zo3PA9v6r5dzi0W-8">
          <mxGeometry relative="1" as="geometry">
            <Array as="points">
              <mxPoint x="300" y="71" />
              <mxPoint x="300" y="71" />
            </Array>
          </mxGeometry>
        </mxCell>
        <mxCell id="89Jm8Zo3PA9v6r5dzi0W-17" value="Add stock to system" style="ellipse;whiteSpace=wrap;html=1;" vertex="1" parent="0SgJ_A86Uggard_y68Ap-2">
          <mxGeometry x="160.5" y="42" width="119" height="48" as="geometry" />
        </mxCell>
        <mxCell id="89Jm8Zo3PA9v6r5dzi0W-31" style="edgeStyle=orthogonalEdgeStyle;rounded=0;orthogonalLoop=1;jettySize=auto;html=1;exitX=1;exitY=0.5;exitDx=0;exitDy=0;entryX=0.263;entryY=0.951;entryDx=0;entryDy=0;entryPerimeter=0;" edge="1" parent="0SgJ_A86Uggard_y68Ap-2" source="89Jm8Zo3PA9v6r5dzi0W-27" target="89Jm8Zo3PA9v6r5dzi0W-12">
          <mxGeometry relative="1" as="geometry">
            <mxPoint x="203" y="479.9999999999998" as="targetPoint" />
          </mxGeometry>
        </mxCell>
        <mxCell id="89Jm8Zo3PA9v6r5dzi0W-27" value="Create ticket" style="ellipse;whiteSpace=wrap;html=1;" vertex="1" parent="0SgJ_A86Uggard_y68Ap-2">
          <mxGeometry x="50" y="392" width="100" height="40" as="geometry" />
        </mxCell>
        <mxCell id="ImMkaFwbqjthbO7qOV-b-15" style="edgeStyle=orthogonalEdgeStyle;rounded=0;orthogonalLoop=1;jettySize=auto;html=1;exitX=0.5;exitY=1;exitDx=0;exitDy=0;entryX=0;entryY=0.5;entryDx=0;entryDy=0;" edge="1" parent="0SgJ_A86Uggard_y68Ap-2" source="89Jm8Zo3PA9v6r5dzi0W-32" target="89Jm8Zo3PA9v6r5dzi0W-34">
          <mxGeometry relative="1" as="geometry">
            <Array as="points">
              <mxPoint x="70" y="560" />
            </Array>
          </mxGeometry>
        </mxCell>
        <mxCell id="89Jm8Zo3PA9v6r5dzi0W-32" value="Add user information to ticket" style="ellipse;whiteSpace=wrap;html=1;" vertex="1" parent="0SgJ_A86Uggard_y68Ap-2">
          <mxGeometry x="10" y="480" width="100" height="60" as="geometry" />
        </mxCell>
        <mxCell id="89Jm8Zo3PA9v6r5dzi0W-33" style="edgeStyle=orthogonalEdgeStyle;rounded=0;orthogonalLoop=1;jettySize=auto;html=1;exitX=0.5;exitY=1;exitDx=0;exitDy=0;" edge="1" parent="0SgJ_A86Uggard_y68Ap-2" source="89Jm8Zo3PA9v6r5dzi0W-12" target="89Jm8Zo3PA9v6r5dzi0W-32">
          <mxGeometry relative="1" as="geometry" />
        </mxCell>
        <mxCell id="89Jm8Zo3PA9v6r5dzi0W-34" value="Add ticket to users account" style="ellipse;whiteSpace=wrap;html=1;" vertex="1" parent="0SgJ_A86Uggard_y68Ap-2">
          <mxGeometry x="80" y="530" width="130" height="60" as="geometry" />
        </mxCell>
        <mxCell id="wvX3v3fsSnRTY_-4Yitd-2" style="edgeStyle=none;curved=1;rounded=0;orthogonalLoop=1;jettySize=auto;html=1;entryX=1;entryY=0.5;entryDx=0;entryDy=0;fontSize=12;startSize=8;endSize=8;" edge="1" parent="0SgJ_A86Uggard_y68Ap-2" source="89Jm8Zo3PA9v6r5dzi0W-6" target="89Jm8Zo3PA9v6r5dzi0W-8">
          <mxGeometry relative="1" as="geometry" />
        </mxCell>
        <mxCell id="ImMkaFwbqjthbO7qOV-b-3" style="edgeStyle=orthogonalEdgeStyle;rounded=0;orthogonalLoop=1;jettySize=auto;html=1;exitX=0.25;exitY=0.1;exitDx=0;exitDy=0;exitPerimeter=0;" edge="1" parent="0SgJ_A86Uggard_y68Ap-2" source="89Jm8Zo3PA9v6r5dzi0W-4">
          <mxGeometry relative="1" as="geometry">
            <mxPoint x="310" y="364" as="targetPoint" />
            <mxPoint x="555.9999999999998" y="630" as="sourcePoint" />
            <Array as="points">
              <mxPoint x="567" y="630" />
              <mxPoint x="570" y="630" />
              <mxPoint x="570" y="590" />
              <mxPoint x="311" y="590" />
              <mxPoint x="311" y="400" />
              <mxPoint x="310" y="400" />
            </Array>
          </mxGeometry>
        </mxCell>
        <mxCell id="ImMkaFwbqjthbO7qOV-b-8" value="Explore Media" style="ellipse;whiteSpace=wrap;html=1;" vertex="1" parent="0SgJ_A86Uggard_y68Ap-2">
          <mxGeometry x="530" y="392" width="90" height="60" as="geometry" />
        </mxCell>
        <mxCell id="ImMkaFwbqjthbO7qOV-b-14" value="Check ticket" style="ellipse;whiteSpace=wrap;html=1;" vertex="1" parent="0SgJ_A86Uggard_y68Ap-2">
          <mxGeometry x="189.5" y="465" width="90" height="50" as="geometry" />
        </mxCell>
        <mxCell id="ImMkaFwbqjthbO7qOV-b-23" style="edgeStyle=orthogonalEdgeStyle;rounded=0;orthogonalLoop=1;jettySize=auto;html=1;exitX=0.5;exitY=1;exitDx=0;exitDy=0;entryX=0.5;entryY=0;entryDx=0;entryDy=0;" edge="1" parent="0SgJ_A86Uggard_y68Ap-2" source="ImMkaFwbqjthbO7qOV-b-20" target="ImMkaFwbqjthbO7qOV-b-22">
          <mxGeometry relative="1" as="geometry" />
        </mxCell>
        <mxCell id="ImMkaFwbqjthbO7qOV-b-20" value="Reserve Media" style="ellipse;whiteSpace=wrap;html=1;" vertex="1" parent="0SgJ_A86Uggard_y68Ap-2">
          <mxGeometry x="395" y="361.5" width="100" height="60" as="geometry" />
        </mxCell>
        <mxCell id="ImMkaFwbqjthbO7qOV-b-21" style="edgeStyle=orthogonalEdgeStyle;rounded=0;orthogonalLoop=1;jettySize=auto;html=1;exitX=0;exitY=0.5;exitDx=0;exitDy=0;entryX=0.955;entryY=0.407;entryDx=0;entryDy=0;entryPerimeter=0;" edge="1" parent="0SgJ_A86Uggard_y68Ap-2" source="ImMkaFwbqjthbO7qOV-b-8" target="ImMkaFwbqjthbO7qOV-b-20">
          <mxGeometry relative="1" as="geometry" />
        </mxCell>
        <mxCell id="ImMkaFwbqjthbO7qOV-b-22" value="Extend Reservation" style="ellipse;whiteSpace=wrap;html=1;" vertex="1" parent="0SgJ_A86Uggard_y68Ap-2">
          <mxGeometry x="400" y="440" width="90" height="60" as="geometry" />
        </mxCell>
        <mxCell id="89Jm8Zo3PA9v6r5dzi0W-18" style="edgeStyle=orthogonalEdgeStyle;rounded=0;orthogonalLoop=1;jettySize=auto;html=1;exitX=0.5;exitY=0.5;exitDx=0;exitDy=0;exitPerimeter=0;entryX=0;entryY=0.5;entryDx=0;entryDy=0;" edge="1" parent="1" source="0SgJ_A86Uggard_y68Ap-3" target="89Jm8Zo3PA9v6r5dzi0W-17">
          <mxGeometry relative="1" as="geometry" />
        </mxCell>
        <mxCell id="0SgJ_A86Uggard_y68Ap-3" value="Branch worker" style="shape=umlActor;verticalLabelPosition=bottom;verticalAlign=top;html=1;outlineConnect=0;" vertex="1" parent="1">
          <mxGeometry x="70" y="152" width="30" height="60" as="geometry" />
        </mxCell>
        <mxCell id="89Jm8Zo3PA9v6r5dzi0W-26" style="edgeStyle=orthogonalEdgeStyle;rounded=0;orthogonalLoop=1;jettySize=auto;html=1;exitX=0.5;exitY=0.5;exitDx=0;exitDy=0;exitPerimeter=0;entryX=0;entryY=1;entryDx=0;entryDy=0;" edge="1" parent="1" source="0SgJ_A86Uggard_y68Ap-4" target="89Jm8Zo3PA9v6r5dzi0W-17">
          <mxGeometry relative="1" as="geometry">
            <Array as="points">
              <mxPoint x="95" y="310" />
              <mxPoint x="367" y="310" />
            </Array>
          </mxGeometry>
        </mxCell>
        <mxCell id="0SgJ_A86Uggard_y68Ap-4" value="Branch Manager" style="shape=umlActor;verticalLabelPosition=bottom;verticalAlign=top;html=1;outlineConnect=0;" vertex="1" parent="1">
          <mxGeometry x="80" y="292" width="30" height="60" as="geometry" />
        </mxCell>
        <mxCell id="89Jm8Zo3PA9v6r5dzi0W-23" style="edgeStyle=orthogonalEdgeStyle;rounded=0;orthogonalLoop=1;jettySize=auto;html=1;exitX=0.5;exitY=0.5;exitDx=0;exitDy=0;exitPerimeter=0;entryX=1;entryY=0;entryDx=0;entryDy=0;" edge="1" parent="1" source="0SgJ_A86Uggard_y68Ap-5" target="89Jm8Zo3PA9v6r5dzi0W-10">
          <mxGeometry relative="1" as="geometry" />
        </mxCell>
        <mxCell id="ImMkaFwbqjthbO7qOV-b-9" style="edgeStyle=orthogonalEdgeStyle;rounded=0;orthogonalLoop=1;jettySize=auto;html=1;exitX=0.5;exitY=0.5;exitDx=0;exitDy=0;exitPerimeter=0;" edge="1" parent="1" source="0SgJ_A86Uggard_y68Ap-5" target="ImMkaFwbqjthbO7qOV-b-8">
          <mxGeometry relative="1" as="geometry">
            <Array as="points">
              <mxPoint x="1035" y="380" />
              <mxPoint x="765" y="380" />
            </Array>
          </mxGeometry>
        </mxCell>
        <mxCell id="0SgJ_A86Uggard_y68Ap-5" value="Library Member" style="shape=umlActor;verticalLabelPosition=bottom;verticalAlign=top;html=1;outlineConnect=0;" vertex="1" parent="1">
          <mxGeometry x="1020" y="320" width="30" height="60" as="geometry" />
        </mxCell>
        <mxCell id="ImMkaFwbqjthbO7qOV-b-1" style="edgeStyle=orthogonalEdgeStyle;rounded=0;orthogonalLoop=1;jettySize=auto;html=1;exitX=0.5;exitY=0.5;exitDx=0;exitDy=0;exitPerimeter=0;" edge="1" parent="1" source="0SgJ_A86Uggard_y68Ap-6" target="89Jm8Zo3PA9v6r5dzi0W-6">
          <mxGeometry relative="1" as="geometry" />
        </mxCell>
        <mxCell id="0SgJ_A86Uggard_y68Ap-6" value="Guest" style="shape=umlActor;verticalLabelPosition=bottom;verticalAlign=top;html=1;outlineConnect=0;" vertex="1" parent="1">
          <mxGeometry x="1020" y="190" width="30" height="60" as="geometry" />
        </mxCell>
        <mxCell id="89Jm8Zo3PA9v6r5dzi0W-28" style="edgeStyle=orthogonalEdgeStyle;rounded=0;orthogonalLoop=1;jettySize=auto;html=1;exitX=0.5;exitY=0.5;exitDx=0;exitDy=0;exitPerimeter=0;entryX=0;entryY=0.5;entryDx=0;entryDy=0;" edge="1" parent="1" source="0SgJ_A86Uggard_y68Ap-7" target="89Jm8Zo3PA9v6r5dzi0W-27">
          <mxGeometry relative="1" as="geometry" />
        </mxCell>
        <mxCell id="ImMkaFwbqjthbO7qOV-b-17" style="edgeStyle=orthogonalEdgeStyle;rounded=0;orthogonalLoop=1;jettySize=auto;html=1;exitX=1;exitY=1;exitDx=0;exitDy=0;exitPerimeter=0;" edge="1" parent="1" source="0SgJ_A86Uggard_y68Ap-7" target="ImMkaFwbqjthbO7qOV-b-14">
          <mxGeometry relative="1" as="geometry">
            <Array as="points">
              <mxPoint x="120" y="515" />
              <mxPoint x="410" y="515" />
            </Array>
          </mxGeometry>
        </mxCell>
        <mxCell id="0SgJ_A86Uggard_y68Ap-7" value="Call Centre Operator" style="shape=umlActor;verticalLabelPosition=bottom;verticalAlign=top;html=1;outlineConnect=0;" vertex="1" parent="1">
          <mxGeometry x="90" y="442" width="30" height="60" as="geometry" />
        </mxCell>
        <mxCell id="ImMkaFwbqjthbO7qOV-b-16" style="edgeStyle=orthogonalEdgeStyle;rounded=0;orthogonalLoop=1;jettySize=auto;html=1;exitX=0.5;exitY=0;exitDx=0;exitDy=0;exitPerimeter=0;entryX=0.5;entryY=1;entryDx=0;entryDy=0;" edge="1" parent="1" source="89Jm8Zo3PA9v6r5dzi0W-2" target="ImMkaFwbqjthbO7qOV-b-14">
          <mxGeometry relative="1" as="geometry">
            <Array as="points">
              <mxPoint x="425" y="700" />
              <mxPoint x="425" y="643" />
            </Array>
          </mxGeometry>
        </mxCell>
        <mxCell id="89Jm8Zo3PA9v6r5dzi0W-2" value="Accountant" style="shape=umlActor;verticalLabelPosition=bottom;verticalAlign=top;html=1;outlineConnect=0;" vertex="1" parent="1">
          <mxGeometry x="370" y="700" width="30" height="60" as="geometry" />
        </mxCell>
        <mxCell id="ImMkaFwbqjthbO7qOV-b-2" style="edgeStyle=orthogonalEdgeStyle;rounded=0;orthogonalLoop=1;jettySize=auto;html=1;exitX=0.5;exitY=0.5;exitDx=0;exitDy=0;exitPerimeter=0;" edge="1" parent="1" source="89Jm8Zo3PA9v6r5dzi0W-3" target="89Jm8Zo3PA9v6r5dzi0W-10">
          <mxGeometry relative="1" as="geometry">
            <Array as="points">
              <mxPoint x="940" y="480" />
              <mxPoint x="940" y="410" />
            </Array>
          </mxGeometry>
        </mxCell>
        <mxCell id="89Jm8Zo3PA9v6r5dzi0W-3" value="Purchase Manager" style="shape=umlActor;verticalLabelPosition=bottom;verticalAlign=top;html=1;outlineConnect=0;" vertex="1" parent="1">
          <mxGeometry x="1020" y="450" width="30" height="60" as="geometry" />
        </mxCell>
        <mxCell id="ImMkaFwbqjthbO7qOV-b-12" style="edgeStyle=orthogonalEdgeStyle;rounded=0;orthogonalLoop=1;jettySize=auto;html=1;exitX=0.5;exitY=0;exitDx=0;exitDy=0;exitPerimeter=0;entryX=0.5;entryY=1;entryDx=0;entryDy=0;" edge="1" parent="1" source="89Jm8Zo3PA9v6r5dzi0W-4" target="ImMkaFwbqjthbO7qOV-b-8">
          <mxGeometry relative="1" as="geometry" />
        </mxCell>
        <mxCell id="89Jm8Zo3PA9v6r5dzi0W-4" value="AML Admin" style="shape=umlActor;verticalLabelPosition=bottom;verticalAlign=top;html=1;outlineConnect=0;" vertex="1" parent="1">
          <mxGeometry x="750" y="700" width="30" height="60" as="geometry" />
        </mxCell>
        <mxCell id="89Jm8Zo3PA9v6r5dzi0W-5" value="Admin" style="shape=umlActor;verticalLabelPosition=bottom;verticalAlign=top;html=1;outlineConnect=0;" vertex="1" parent="1">
          <mxGeometry x="555" y="700" width="30" height="60" as="geometry" />
        </mxCell>
        <mxCell id="ImMkaFwbqjthbO7qOV-b-10" style="edgeStyle=orthogonalEdgeStyle;rounded=0;orthogonalLoop=1;jettySize=auto;html=1;exitX=0.5;exitY=0.5;exitDx=0;exitDy=0;exitPerimeter=0;entryX=0.708;entryY=0.064;entryDx=0;entryDy=0;entryPerimeter=0;" edge="1" parent="1" source="0SgJ_A86Uggard_y68Ap-6" target="ImMkaFwbqjthbO7qOV-b-8">
          <mxGeometry relative="1" as="geometry" />
        </mxCell>
        <mxCell id="ImMkaFwbqjthbO7qOV-b-11" style="edgeStyle=orthogonalEdgeStyle;rounded=0;orthogonalLoop=1;jettySize=auto;html=1;exitX=0.5;exitY=0.5;exitDx=0;exitDy=0;exitPerimeter=0;entryX=0.302;entryY=0.087;entryDx=0;entryDy=0;entryPerimeter=0;" edge="1" parent="1" source="0SgJ_A86Uggard_y68Ap-3" target="ImMkaFwbqjthbO7qOV-b-8">
          <mxGeometry relative="1" as="geometry">
            <Array as="points">
              <mxPoint x="85" y="270" />
              <mxPoint x="747" y="270" />
            </Array>
          </mxGeometry>
        </mxCell>
        <mxCell id="ImMkaFwbqjthbO7qOV-b-13" style="edgeStyle=orthogonalEdgeStyle;rounded=0;orthogonalLoop=1;jettySize=auto;html=1;exitX=0.5;exitY=0;exitDx=0;exitDy=0;exitPerimeter=0;entryX=0.348;entryY=0.972;entryDx=0;entryDy=0;entryPerimeter=0;" edge="1" parent="1" source="89Jm8Zo3PA9v6r5dzi0W-5" target="ImMkaFwbqjthbO7qOV-b-8">
          <mxGeometry relative="1" as="geometry">
            <Array as="points">
              <mxPoint x="590" y="700" />
              <mxPoint x="590" y="611" />
              <mxPoint x="751" y="611" />
            </Array>
          </mxGeometry>
        </mxCell>
        <mxCell id="ImMkaFwbqjthbO7qOV-b-18" style="edgeStyle=orthogonalEdgeStyle;rounded=0;orthogonalLoop=1;jettySize=auto;html=1;exitX=0.5;exitY=0;exitDx=0;exitDy=0;exitPerimeter=0;entryX=0.76;entryY=0.879;entryDx=0;entryDy=0;entryPerimeter=0;" edge="1" parent="1" source="89Jm8Zo3PA9v6r5dzi0W-5" target="ImMkaFwbqjthbO7qOV-b-14">
          <mxGeometry relative="1" as="geometry">
            <Array as="points">
              <mxPoint x="570" y="670" />
              <mxPoint x="448" y="670" />
            </Array>
          </mxGeometry>
        </mxCell>
        <mxCell id="ImMkaFwbqjthbO7qOV-b-19" style="edgeStyle=orthogonalEdgeStyle;rounded=0;orthogonalLoop=1;jettySize=auto;html=1;exitX=0.5;exitY=0.5;exitDx=0;exitDy=0;exitPerimeter=0;entryX=0.006;entryY=0.7;entryDx=0;entryDy=0;entryPerimeter=0;" edge="1" parent="1" source="0SgJ_A86Uggard_y68Ap-4" target="ImMkaFwbqjthbO7qOV-b-14">
          <mxGeometry relative="1" as="geometry">
            <Array as="points">
              <mxPoint x="95" y="320" />
              <mxPoint x="230" y="320" />
              <mxPoint x="230" y="540" />
              <mxPoint x="380" y="540" />
            </Array>
          </mxGeometry>
        </mxCell>
      </root>
    </mxGraphModel>
  </diagram>
</mxfile>
